<svg width="800" height="170" viewBox="0 0 800 170" xmlns="http://www.w3.org/2000/svg">
  <rect width="800" height="170" fill="#ffffff"/>
  <text x="52" y="26" font-family="ui-monospace,monospace" font-size="9" fill="#57606a">Aug</text>
  <text x="122" y="26" font-family="ui-monospace,monospace" font-size="9" fill="#57606a">Sep</text>
  <text x="178" y="26" font-family="ui-monospace,monospace" font-size="9" fill="#57606a">Oct</text>
  <text x="234" y="26" font-family="ui-monospace,monospace" font-size="9" fill="#57606a">Nov</text>
  <text x="304" y="26" font-family="ui-monospace,monospace" font-size="9" fill="#57606a">Dec</text>
  <text x="360" y="26" font-family="ui-monospace,monospace" font-size="9" fill="#57606a">Jan</text>
  <text x="430" y="26" font-family="ui-monospace,monospace" font-size="9" fill="#57606a">Feb</text>
  <text x="486" y="26" font-family="ui-monospace,monospace" font-size="9" fill="#57606a">Mar</text>
  <text x="542" y="26" font-family="ui-monospace,monospace" font-size="9" fill="#57606a">Apr</text>
  <text x="598" y="26" font-family="ui-monospace,monospace" font-size="9" fill="#57606a">May</text>
  <text x="668" y="26" font-family="ui-monospace,monospace" font-size="9" fill="#57606a">Jun</text>
  <text x="724" y="26" font-family="ui-monospace,monospace" font-size="9" fill="#57606a">Jul</text>
  <text x="34" y="56" font-family="ui-monospace,monospace" font-size="9" fill="#57606a" text-anchor="end">Mon</text>
  <text x="34" y="84" font-family="ui-monospace,monospace" font-size="9" fill="#57606a" text-anchor="end">Wed</text>
  <text x="34" y="112" font-family="ui-monospace,monospace" font-size="9" fill="#57606a" text-anchor="end">Fri</text>
  <rect x="38" y="32" width="11" height="11" rx="2" fill="#ebedf0"/>
  <rect x="38" y="46" width="11" height="11" rx="2" fill="#ebedf0"/>
  <rect x="38" y="60" width="11" height="11" rx="2" fill="#ebedf0"/>
  <rect x="38" y="74" width="11" height="11" rx="2" fill="#ebedf0"/>
  <rect x="38" y="88" width="11" height="11" rx="2" fill="#ebedf0"/>
  <rect x="38" y="102" width="11" height="11" rx="2" fill="#ebedf0"/>
  <rect x="38" y="116" width="11" height="11" rx="2" fill="#9fc5f8"/>
  <rect x="52" y="32" width="11" height="11" rx="2" fill="#ebedf0"/>
  <rect x="52" y="46" width="11" height="11" rx="2" fill="#ebedf0"/>
  <rect x="52" y="60" width="11" height="11" rx="2" fill="#ebedf0"/>
  <rect x="52" y="74" width="11" height="11" rx="2" fill="#ebedf0"/>
  <rect x="52" y="88" width="11" height="11" rx="2" fill="#ebedf0"/>
  <rect x="52" y="102" width="11" height="11" rx="2" fill="#ebedf0"/>
  <rect x="52" y="116" width="11" height="11" rx="2" fill="#ebedf0"/>
  <rect x="66" y="32" width="11" height="11" rx="2" fill="#ebedf0"/>
  <rect x="66" y="46" width="11" height="11" rx="2" fill="#ebedf0"/>
  <rect x="66" y="60" width="11" height="11" rx="2" fill="#ebedf0"/>
  <rect x="66" y="74" width="11" height="11" rx="2" fill="#ebedf0"/>
  <rect x="66" y="88" width="11" height="11" rx="2" fill="#ebedf0"/>
  <rect x="66" y="102" width="11" height="11" rx="2" fill="#ebedf0"/>
  <rect x="66" y="116" width="11" height="11" rx="2" fill="#ebedf0"/>
  <rect x="80" y="32" width="11" height="11" rx="2" fill="#ebedf0"/>
  <rect x="80" y="46" width="11" height="11" rx="2" fill="#ebedf0"/>
  <rect x="80" y="60" width="11" height="11" rx="2" fill="#ebedf0"/>
  <rect x="80" y="74" width="11" height="11" rx="2" fill="#ebedf0"/>
  <rect x="80" y="88" width="11" height="11" rx="2" fill="#ebedf0"/>
  <rect x="80" y="102" width="11" height="11" rx="2" fill="#ebedf0"/>
  <rect x="80" y="116" width="11" height="11" rx="2" fill="#ebedf0"/>
  <rect x="94" y="32" width="11" height="11" rx="2" fill="#ebedf0"/>
  <rect x="94" y="46" width="11" height="11" rx="2" fill="#ebedf0"/>
  <rect x="94" y="60" width="11" height="11" rx="2" fill="#ebedf0"/>
  <rect x="94" y="74" width="11" height="11" rx="2" fill="#ebedf0"/>
  <rect x="94" y="88" width="11" height="11" rx="2" fill="#ebedf0"/>
  <rect x="94" y="102" width="11" height="11" rx="2" fill="#ebedf0"/>
  <rect x="94" y="116" width="11" height="11" rx="2" fill="#ebedf0"/>
  <rect x="108" y="32" width="11" height="11" rx="2" fill="#ebedf0"/>
  <rect x="108" y="46" width="11" height="11" rx="2" fill="#ebedf0"/>
  <rect x="108" y="60" width="11" height="11" rx="2" fill="#ebedf0"/>
  <rect x="108" y="74" width="11" height="11" rx="2" fill="#ebedf0"/>
  <rect x="108" y="88" width="11" height="11" rx="2" fill="#ebedf0"/>
  <rect x="108" y="102" width="11" height="11" rx="2" fill="#ebedf0"/>
  <rect x="108" y="116" width="11" height="11" rx="2" fill="#ebedf0"/>
  <rect x="122" y="32" width="11" height="11" rx="2" fill="#ebedf0"/>
  <rect x="122" y="46" width="11" height="11" rx="2" fill="#ebedf0"/>
  <rect x="122" y="60" width="11" height="11" rx="2" fill="#ebedf0"/>
  <rect x="122" y="74" width="11" height="11" rx="2" fill="#ebedf0"/>
  <rect x="122" y="88" width="11" height="11" rx="2" fill="#ebedf0"/>
  <rect x="122" y="102" width="11" height="11" rx="2" fill="#ebedf0"/>
  <rect x="122" y="116" width="11" height="11" rx="2" fill="#ebedf0"/>
  <rect x="136" y="32" width="11" height="11" rx="2" fill="#ebedf0"/>
  <rect x="136" y="46" width="11" height="11" rx="2" fill="#ebedf0"/>
  <rect x="136" y="60" width="11" height="11" rx="2" fill="#ebedf0"/>
  <rect x="136" y="74" width="11" height="11" rx="2" fill="#ebedf0"/>
  <rect x="136" y="88" width="11" height="11" rx="2" fill="#ebedf0"/>
  <rect x="136" y="102" width="11" height="11" rx="2" fill="#ebedf0"/>
  <rect x="136" y="116" width="11" height="11" rx="2" fill="#ebedf0"/>
  <rect x="150" y="32" width="11" height="11" rx="2" fill="#ebedf0"/>
  <rect x="150" y="46" width="11" height="11" rx="2" fill="#ebedf0"/>
  <rect x="150" y="60" width="11" height="11" rx="2" fill="#ebedf0"/>
  <rect x="150" y="74" width="11" height="11" rx="2" fill="#ebedf0"/>
  <rect x="150" y="88" width="11" height="11" rx="2" fill="#ebedf0"/>
  <rect x="150" y="102" width="11" height="11" rx="2" fill="#ebedf0"/>
  <rect x="150" y="116" width="11" height="11" rx="2" fill="#ebedf0"/>
  <rect x="164" y="32" width="11" height="11" rx="2" fill="#ebedf0"/>
  <rect x="164" y="46" width="11" height="11" rx="2" fill="#ebedf0"/>
  <rect x="164" y="60" width="11" height="11" rx="2" fill="#ebedf0"/>
  <rect x="164" y="74" width="11" height="11" rx="2" fill="#ebedf0"/>
  <rect x="164" y="88" width="11" height="11" rx="2" fill="#ebedf0"/>
  <rect x="164" y="102" width="11" height="11" rx="2" fill="#ebedf0"/>
  <rect x="164" y="116" width="11" height="11" rx="2" fill="#ebedf0"/>
  <rect x="178" y="32" width="11" height="11" rx="2" fill="#ebedf0"/>
  <rect x="178" y="46" width="11" height="11" rx="2" fill="#ebedf0"/>
  <rect x="178" y="60" width="11" height="11" rx="2" fill="#ebedf0"/>
  <rect x="178" y="74" width="11" height="11" rx="2" fill="#ebedf0"/>
  <rect x="178" y="88" width="11" height="11" rx="2" fill="#ebedf0"/>
  <rect x="178" y="102" width="11" height="11" rx="2" fill="#ebedf0"/>
  <rect x="178" y="116" width="11" height="11" rx="2" fill="#ebedf0"/>
  <rect x="192" y="32" width="11" height="11" rx="2" fill="#ebedf0"/>
  <rect x="192" y="46" width="11" height="11" rx="2" fill="#ebedf0"/>
  <rect x="192" y="60" width="11" height="11" rx="2" fill="#ebedf0"/>
  <rect x="192" y="74" width="11" height="11" rx="2" fill="#ebedf0"/>
  <rect x="192" y="88" width="11" height="11" rx="2" fill="#ebedf0"/>
  <rect x="192" y="102" width="11" height="11" rx="2" fill="#ebedf0"/>
  <rect x="192" y="116" width="11" height="11" rx="2" fill="#ebedf0"/>
  <rect x="206" y="32" width="11" height="11" rx="2" fill="#ebedf0"/>
  <rect x="206" y="46" width="11" height="11" rx="2" fill="#ebedf0"/>
  <rect x="206" y="60" width="11" height="11" rx="2" fill="#ebedf0"/>
  <rect x="206" y="74" width="11" height="11" rx="2" fill="#ebedf0"/>
  <rect x="206" y="88" width="11" height="11" rx="2" fill="#ebedf0"/>
  <rect x="206" y="102" width="11" height="11" rx="2" fill="#ebedf0"/>
  <rect x="206" y="116" width="11" height="11" rx="2" fill="#ebedf0"/>
  <rect x="220" y="32" width="11" height="11" rx="2" fill="#ebedf0"/>
  <rect x="220" y="46" width="11" height="11" rx="2" fill="#ebedf0"/>
  <rect x="220" y="60" width="11" height="11" rx="2" fill="#ebedf0"/>
  <rect x="220" y="74" width="11" height="11" rx="2" fill="#ebedf0"/>
  <rect x="220" y="88" width="11" height="11" rx="2" fill="#ebedf0"/>
  <rect x="220" y="102" width="11" height="11" rx="2" fill="#ebedf0"/>
  <rect x="220" y="116" width="11" height="11" rx="2" fill="#ebedf0"/>
  <rect x="234" y="32" width="11" height="11" rx="2" fill="#ebedf0"/>
  <rect x="234" y="46" width="11" height="11" rx="2" fill="#ebedf0"/>
  <rect x="234" y="60" width="11" height="11" rx="2" fill="#ebedf0"/>
  <rect x="234" y="74" width="11" height="11" rx="2" fill="#ebedf0"/>
  <rect x="234" y="88" width="11" height="11" rx="2" fill="#ebedf0"/>
  <rect x="234" y="102" width="11" height="11" rx="2" fill="#9fc5f8"/>
  <rect x="234" y="116" width="11" height="11" rx="2" fill="#ebedf0"/>
  <rect x="248" y="32" width="11" height="11" rx="2" fill="#ebedf0"/>
  <rect x="248" y="46" width="11" height="11" rx="2" fill="#ebedf0"/>
  <rect x="248" y="60" width="11" height="11" rx="2" fill="#ebedf0"/>
  <rect x="248" y="74" width="11" height="11" rx="2" fill="#ebedf0"/>
  <rect x="248" y="88" width="11" height="11" rx="2" fill="#ebedf0"/>
  <rect x="248" y="102" width="11" height="11" rx="2" fill="#ebedf0"/>
  <rect x="248" y="116" width="11" height="11" rx="2" fill="#ebedf0"/>
  <rect x="262" y="32" width="11" height="11" rx="2" fill="#ebedf0"/>
  <rect x="262" y="46" width="11" height="11" rx="2" fill="#ebedf0"/>
  <rect x="262" y="60" width="11" height="11" rx="2" fill="#ebedf0"/>
  <rect x="262" y="74" width="11" height="11" rx="2" fill="#ebedf0"/>
  <rect x="262" y="88" width="11" height="11" rx="2" fill="#ebedf0"/>
  <rect x="262" y="102" width="11" height="11" rx="2" fill="#ebedf0"/>
  <rect x="262" y="116" width="11" height="11" rx="2" fill="#ebedf0"/>
  <rect x="276" y="32" width="11" height="11" rx="2" fill="#ebedf0"/>
  <rect x="276" y="46" width="11" height="11" rx="2" fill="#ebedf0"/>
  <rect x="276" y="60" width="11" height="11" rx="2" fill="#ebedf0"/>
  <rect x="276" y="74" width="11" height="11" rx="2" fill="#ebedf0"/>
  <rect x="276" y="88" width="11" height="11" rx="2" fill="#ebedf0"/>
  <rect x="276" y="102" width="11" height="11" rx="2" fill="#ebedf0"/>
  <rect x="276" y="116" width="11" height="11" rx="2" fill="#ebedf0"/>
  <rect x="290" y="32" width="11" height="11" rx="2" fill="#ebedf0"/>
  <rect x="290" y="46" width="11" height="11" rx="2" fill="#ebedf0"/>
  <rect x="290" y="60" width="11" height="11" rx="2" fill="#ebedf0"/>
  <rect x="290" y="74" width="11" height="11" rx="2" fill="#ebedf0"/>
  <rect x="290" y="88" width="11" height="11" rx="2" fill="#ebedf0"/>
  <rect x="290" y="102" width="11" height="11" rx="2" fill="#ebedf0"/>
  <rect x="290" y="116" width="11" height="11" rx="2" fill="#ebedf0"/>
  <rect x="304" y="32" width="11" height="11" rx="2" fill="#ebedf0"/>
  <rect x="304" y="46" width="11" height="11" rx="2" fill="#ebedf0"/>
  <rect x="304" y="60" width="11" height="11" rx="2" fill="#ebedf0"/>
  <rect x="304" y="74" width="11" height="11" rx="2" fill="#ebedf0"/>
  <rect x="304" y="88" width="11" height="11" rx="2" fill="#ebedf0"/>
  <rect x="304" y="102" width="11" height="11" rx="2" fill="#ebedf0"/>
  <rect x="304" y="116" width="11" height="11" rx="2" fill="#ebedf0"/>
  <rect x="318" y="32" width="11" height="11" rx="2" fill="#ebedf0"/>
  <rect x="318" y="46" width="11" height="11" rx="2" fill="#ebedf0"/>
  <rect x="318" y="60" width="11" height="11" rx="2" fill="#ebedf0"/>
  <rect x="318" y="74" width="11" height="11" rx="2" fill="#ebedf0"/>
  <rect x="318" y="88" width="11" height="11" rx="2" fill="#ebedf0"/>
  <rect x="318" y="102" width="11" height="11" rx="2" fill="#ebedf0"/>
  <rect x="318" y="116" width="11" height="11" rx="2" fill="#ebedf0"/>
  <rect x="332" y="32" width="11" height="11" rx="2" fill="#ebedf0"/>
  <rect x="332" y="46" width="11" height="11" rx="2" fill="#ebedf0"/>
  <rect x="332" y="60" width="11" height="11" rx="2" fill="#ebedf0"/>
  <rect x="332" y="74" width="11" height="11" rx="2" fill="#ebedf0"/>
  <rect x="332" y="88" width="11" height="11" rx="2" fill="#ebedf0"/>
  <rect x="332" y="102" width="11" height="11" rx="2" fill="#ebedf0"/>
  <rect x="332" y="116" width="11" height="11" rx="2" fill="#ebedf0"/>
  <rect x="346" y="32" width="11" height="11" rx="2" fill="#ebedf0"/>
  <rect x="346" y="46" width="11" height="11" rx="2" fill="#ebedf0"/>
  <rect x="346" y="60" width="11" height="11" rx="2" fill="#ebedf0"/>
  <rect x="346" y="74" width="11" height="11" rx="2" fill="#ebedf0"/>
  <rect x="346" y="88" width="11" height="11" rx="2" fill="#ebedf0"/>
  <rect x="346" y="102" width="11" height="11" rx="2" fill="#ebedf0"/>
  <rect x="346" y="116" width="11" height="11" rx="2" fill="#ebedf0"/>
  <rect x="360" y="32" width="11" height="11" rx="2" fill="#ebedf0"/>
  <rect x="360" y="46" width="11" height="11" rx="2" fill="#ebedf0"/>
  <rect x="360" y="60" width="11" height="11" rx="2" fill="#ebedf0"/>
  <rect x="360" y="74" width="11" height="11" rx="2" fill="#ebedf0"/>
  <rect x="360" y="88" width="11" height="11" rx="2" fill="#ebedf0"/>
  <rect x="360" y="102" width="11" height="11" rx="2" fill="#ebedf0"/>
  <rect x="360" y="116" width="11" height="11" rx="2" fill="#ebedf0"/>
  <rect x="374" y="32" width="11" height="11" rx="2" fill="#ebedf0"/>
  <rect x="374" y="46" width="11" height="11" rx="2" fill="#ebedf0"/>
  <rect x="374" y="60" width="11" height="11" rx="2" fill="#ebedf0"/>
  <rect x="374" y="74" width="11" height="11" rx="2" fill="#ebedf0"/>
  <rect x="374" y="88" width="11" height="11" rx="2" fill="#ebedf0"/>
  <rect x="374" y="102" width="11" height="11" rx="2" fill="#ebedf0"/>
  <rect x="374" y="116" width="11" height="11" rx="2" fill="#ebedf0"/>
  <rect x="388" y="32" width="11" height="11" rx="2" fill="#ebedf0"/>
  <rect x="388" y="46" width="11" height="11" rx="2" fill="#ebedf0"/>
  <rect x="388" y="60" width="11" height="11" rx="2" fill="#ebedf0"/>
  <rect x="388" y="74" width="11" height="11" rx="2" fill="#ebedf0"/>
  <rect x="388" y="88" width="11" height="11" rx="2" fill="#ebedf0"/>
  <rect x="388" y="102" width="11" height="11" rx="2" fill="#ebedf0"/>
  <rect x="388" y="116" width="11" height="11" rx="2" fill="#ebedf0"/>
  <rect x="402" y="32" width="11" height="11" rx="2" fill="#ebedf0"/>
  <rect x="402" y="46" width="11" height="11" rx="2" fill="#ebedf0"/>
  <rect x="402" y="60" width="11" height="11" rx="2" fill="#ebedf0"/>
  <rect x="402" y="74" width="11" height="11" rx="2" fill="#ebedf0"/>
  <rect x="402" y="88" width="11" height="11" rx="2" fill="#ebedf0"/>
  <rect x="402" y="102" width="11" height="11" rx="2" fill="#ebedf0"/>
  <rect x="402" y="116" width="11" height="11" rx="2" fill="#ebedf0"/>
  <rect x="416" y="32" width="11" height="11" rx="2" fill="#ebedf0"/>
  <rect x="416" y="46" width="11" height="11" rx="2" fill="#ebedf0"/>
  <rect x="416" y="60" width="11" height="11" rx="2" fill="#ebedf0"/>
  <rect x="416" y="74" width="11" height="11" rx="2" fill="#ebedf0"/>
  <rect x="416" y="88" width="11" height="11" rx="2" fill="#ebedf0"/>
  <rect x="416" y="102" width="11" height="11" rx="2" fill="#ebedf0"/>
  <rect x="416" y="116" width="11" height="11" rx="2" fill="#ebedf0"/>
  <rect x="430" y="32" width="11" height="11" rx="2" fill="#ebedf0"/>
  <rect x="430" y="46" width="11" height="11" rx="2" fill="#ebedf0"/>
  <rect x="430" y="60" width="11" height="11" rx="2" fill="#ebedf0"/>
  <rect x="430" y="74" width="11" height="11" rx="2" fill="#ebedf0"/>
  <rect x="430" y="88" width="11" height="11" rx="2" fill="#ebedf0"/>
  <rect x="430" y="102" width="11" height="11" rx="2" fill="#ebedf0"/>
  <rect x="430" y="116" width="11" height="11" rx="2" fill="#ebedf0"/>
  <rect x="444" y="32" width="11" height="11" rx="2" fill="#ebedf0"/>
  <rect x="444" y="46" width="11" height="11" rx="2" fill="#ebedf0"/>
  <rect x="444" y="60" width="11" height="11" rx="2" fill="#ebedf0"/>
  <rect x="444" y="74" width="11" height="11" rx="2" fill="#ebedf0"/>
  <rect x="444" y="88" width="11" height="11" rx="2" fill="#ebedf0"/>
  <rect x="444" y="102" width="11" height="11" rx="2" fill="#ebedf0"/>
  <rect x="444" y="116" width="11" height="11" rx="2" fill="#ebedf0"/>
  <rect x="458" y="32" width="11" height="11" rx="2" fill="#ebedf0"/>
  <rect x="458" y="46" width="11" height="11" rx="2" fill="#ebedf0"/>
  <rect x="458" y="60" width="11" height="11" rx="2" fill="#ebedf0"/>
  <rect x="458" y="74" width="11" height="11" rx="2" fill="#ebedf0"/>
  <rect x="458" y="88" width="11" height="11" rx="2" fill="#ebedf0"/>
  <rect x="458" y="102" width="11" height="11" rx="2" fill="#ebedf0"/>
  <rect x="458" y="116" width="11" height="11" rx="2" fill="#ebedf0"/>
  <rect x="472" y="32" width="11" height="11" rx="2" fill="#ebedf0"/>
  <rect x="472" y="46" width="11" height="11" rx="2" fill="#ebedf0"/>
  <rect x="472" y="60" width="11" height="11" rx="2" fill="#ebedf0"/>
  <rect x="472" y="74" width="11" height="11" rx="2" fill="#ebedf0"/>
  <rect x="472" y="88" width="11" height="11" rx="2" fill="#ebedf0"/>
  <rect x="472" y="102" width="11" height="11" rx="2" fill="#ebedf0"/>
  <rect x="472" y="116" width="11" height="11" rx="2" fill="#ebedf0"/>
  <rect x="486" y="32" width="11" height="11" rx="2" fill="#ebedf0"/>
  <rect x="486" y="46" width="11" height="11" rx="2" fill="#ebedf0"/>
  <rect x="486" y="60" width="11" height="11" rx="2" fill="#ebedf0"/>
  <rect x="486" y="74" width="11" height="11" rx="2" fill="#ebedf0"/>
  <rect x="486" y="88" width="11" height="11" rx="2" fill="#ebedf0"/>
  <rect x="486" y="102" width="11" height="11" rx="2" fill="#ebedf0"/>
  <rect x="486" y="116" width="11" height="11" rx="2" fill="#ebedf0"/>
  <rect x="500" y="32" width="11" height="11" rx="2" fill="#ebedf0"/>
  <rect x="500" y="46" width="11" height="11" rx="2" fill="#ebedf0"/>
  <rect x="500" y="60" width="11" height="11" rx="2" fill="#ebedf0"/>
  <rect x="500" y="74" width="11" height="11" rx="2" fill="#ebedf0"/>
  <rect x="500" y="88" width="11" height="11" rx="2" fill="#ebedf0"/>
  <rect x="500" y="102" width="11" height="11" rx="2" fill="#ebedf0"/>
  <rect x="500" y="116" width="11" height="11" rx="2" fill="#ebedf0"/>
  <rect x="514" y="32" width="11" height="11" rx="2" fill="#ebedf0"/>
  <rect x="514" y="46" width="11" height="11" rx="2" fill="#ebedf0"/>
  <rect x="514" y="60" width="11" height="11" rx="2" fill="#ebedf0"/>
  <rect x="514" y="74" width="11" height="11" rx="2" fill="#ebedf0"/>
  <rect x="514" y="88" width="11" height="11" rx="2" fill="#ebedf0"/>
  <rect x="514" y="102" width="11" height="11" rx="2" fill="#ebedf0"/>
  <rect x="514" y="116" width="11" height="11" rx="2" fill="#ebedf0"/>
  <rect x="528" y="32" width="11" height="11" rx="2" fill="#ebedf0"/>
  <rect x="528" y="46" width="11" height="11" rx="2" fill="#ebedf0"/>
  <rect x="528" y="60" width="11" height="11" rx="2" fill="#ebedf0"/>
  <rect x="528" y="74" width="11" height="11" rx="2" fill="#ebedf0"/>
  <rect x="528" y="88" width="11" height="11" rx="2" fill="#ebedf0"/>
  <rect x="528" y="102" width="11" height="11" rx="2" fill="#ebedf0"/>
  <rect x="528" y="116" width="11" height="11" rx="2" fill="#ebedf0"/>
  <rect x="542" y="32" width="11" height="11" rx="2" fill="#ebedf0"/>
  <rect x="542" y="46" width="11" height="11" rx="2" fill="#ebedf0"/>
  <rect x="542" y="60" width="11" height="11" rx="2" fill="#ebedf0"/>
  <rect x="542" y="74" width="11" height="11" rx="2" fill="#ebedf0"/>
  <rect x="542" y="88" width="11" height="11" rx="2" fill="#ebedf0"/>
  <rect x="542" y="102" width="11" height="11" rx="2" fill="#ebedf0"/>
  <rect x="542" y="116" width="11" height="11" rx="2" fill="#ebedf0"/>
  <rect x="556" y="32" width="11" height="11" rx="2" fill="#ebedf0"/>
  <rect x="556" y="46" width="11" height="11" rx="2" fill="#ebedf0"/>
  <rect x="556" y="60" width="11" height="11" rx="2" fill="#ebedf0"/>
  <rect x="556" y="74" width="11" height="11" rx="2" fill="#ebedf0"/>
  <rect x="556" y="88" width="11" height="11" rx="2" fill="#ebedf0"/>
  <rect x="556" y="102" width="11" height="11" rx="2" fill="#ebedf0"/>
  <rect x="556" y="116" width="11" height="11" rx="2" fill="#ebedf0"/>
  <rect x="570" y="32" width="11" height="11" rx="2" fill="#ebedf0"/>
  <rect x="570" y="46" width="11" height="11" rx="2" fill="#ebedf0"/>
  <rect x="570" y="60" width="11" height="11" rx="2" fill="#ebedf0"/>
  <rect x="570" y="74" width="11" height="11" rx="2" fill="#ebedf0"/>
  <rect x="570" y="88" width="11" height="11" rx="2" fill="#ebedf0"/>
  <rect x="570" y="102" width="11" height="11" rx="2" fill="#ebedf0"/>
  <rect x="570" y="116" width="11" height="11" rx="2" fill="#ebedf0"/>
  <rect x="584" y="32" width="11" height="11" rx="2" fill="#ebedf0"/>
  <rect x="584" y="46" width="11" height="11" rx="2" fill="#ebedf0"/>
  <rect x="584" y="60" width="11" height="11" rx="2" fill="#ebedf0"/>
  <rect x="584" y="74" width="11" height="11" rx="2" fill="#ebedf0"/>
  <rect x="584" y="88" width="11" height="11" rx="2" fill="#ebedf0"/>
  <rect x="584" y="102" width="11" height="11" rx="2" fill="#ebedf0"/>
  <rect x="584" y="116" width="11" height="11" rx="2" fill="#ebedf0"/>
  <rect x="598" y="32" width="11" height="11" rx="2" fill="#ebedf0"/>
  <rect x="598" y="46" width="11" height="11" rx="2" fill="#ebedf0"/>
  <rect x="598" y="60" width="11" height="11" rx="2" fill="#ebedf0"/>
  <rect x="598" y="74" width="11" height="11" rx="2" fill="#ebedf0"/>
  <rect x="598" y="88" width="11" height="11" rx="2" fill="#ebedf0"/>
  <rect x="598" y="102" width="11" height="11" rx="2" fill="#ebedf0"/>
  <rect x="598" y="116" width="11" height="11" rx="2" fill="#ebedf0"/>
  <rect x="612" y="32" width="11" height="11" rx="2" fill="#ebedf0"/>
  <rect x="612" y="46" width="11" height="11" rx="2" fill="#ebedf0"/>
  <rect x="612" y="60" width="11" height="11" rx="2" fill="#ebedf0"/>
  <rect x="612" y="74" width="11" height="11" rx="2" fill="#ebedf0"/>
  <rect x="612" y="88" width="11" height="11" rx="2" fill="#ebedf0"/>
  <rect x="612" y="102" width="11" height="11" rx="2" fill="#ebedf0"/>
  <rect x="612" y="116" width="11" height="11" rx="2" fill="#ebedf0"/>
  <rect x="626" y="32" width="11" height="11" rx="2" fill="#ebedf0"/>
  <rect x="626" y="46" width="11" height="11" rx="2" fill="#ebedf0"/>
  <rect x="626" y="60" width="11" height="11" rx="2" fill="#ebedf0"/>
  <rect x="626" y="74" width="11" height="11" rx="2" fill="#ebedf0"/>
  <rect x="626" y="88" width="11" height="11" rx="2" fill="#ebedf0"/>
  <rect x="626" y="102" width="11" height="11" rx="2" fill="#ebedf0"/>
  <rect x="626" y="116" width="11" height="11" rx="2" fill="#ebedf0"/>
  <rect x="640" y="32" width="11" height="11" rx="2" fill="#ebedf0"/>
  <rect x="640" y="46" width="11" height="11" rx="2" fill="#ebedf0"/>
  <rect x="640" y="60" width="11" height="11" rx="2" fill="#ebedf0"/>
  <rect x="640" y="74" width="11" height="11" rx="2" fill="#ebedf0"/>
  <rect x="640" y="88" width="11" height="11" rx="2" fill="#ebedf0"/>
  <rect x="640" y="102" width="11" height="11" rx="2" fill="#ebedf0"/>
  <rect x="640" y="116" width="11" height="11" rx="2" fill="#ebedf0"/>
  <rect x="654" y="32" width="11" height="11" rx="2" fill="#ebedf0"/>
  <rect x="654" y="46" width="11" height="11" rx="2" fill="#ebedf0"/>
  <rect x="654" y="60" width="11" height="11" rx="2" fill="#4a90d9"/>
  <rect x="654" y="74" width="11" height="11" rx="2" fill="#ebedf0"/>
  <rect x="654" y="88" width="11" height="11" rx="2" fill="#ebedf0"/>
  <rect x="654" y="102" width="11" height="11" rx="2" fill="#ebedf0"/>
  <rect x="654" y="116" width="11" height="11" rx="2" fill="#ebedf0"/>
  <rect x="668" y="32" width="11" height="11" rx="2" fill="#ebedf0"/>
  <rect x="668" y="46" width="11" height="11" rx="2" fill="#9fc5f8"/>
  <rect x="668" y="60" width="11" height="11" rx="2" fill="#ebedf0"/>
  <rect x="668" y="74" width="11" height="11" rx="2" fill="#ebedf0"/>
  <rect x="668" y="88" width="11" height="11" rx="2" fill="#4a90d9"/>
  <rect x="668" y="102" width="11" height="11" rx="2" fill="#9fc5f8"/>
  <rect x="668" y="116" width="11" height="11" rx="2" fill="#9fc5f8"/>
  <rect x="682" y="32" width="11" height="11" rx="2" fill="#ebedf0"/>
  <rect x="682" y="46" width="11" height="11" rx="2" fill="#ebedf0"/>
  <rect x="682" y="60" width="11" height="11" rx="2" fill="#9fc5f8"/>
  <rect x="682" y="74" width="11" height="11" rx="2" fill="#9fc5f8"/>
  <rect x="682" y="88" width="11" height="11" rx="2" fill="#ebedf0"/>
  <rect x="682" y="102" width="11" height="11" rx="2" fill="#ebedf0"/>
  <rect x="682" y="116" width="11" height="11" rx="2" fill="#4a90d9"/>
  <rect x="696" y="32" width="11" height="11" rx="2" fill="#9fc5f8"/>
  <rect x="696" y="46" width="11" height="11" rx="2" fill="#ebedf0"/>
  <rect x="696" y="60" width="11" height="11" rx="2" fill="#ebedf0"/>
  <rect x="696" y="74" width="11" height="11" rx="2" fill="#ebedf0"/>
  <rect x="696" y="88" width="11" height="11" rx="2" fill="#ebedf0"/>
  <rect x="696" y="102" width="11" height="11" rx="2" fill="#ebedf0"/>
  <rect x="696" y="116" width="11" height="11" rx="2" fill="#ebedf0"/>
  <rect x="710" y="32" width="11" height="11" rx="2" fill="#ebedf0"/>
  <rect x="710" y="46" width="11" height="11" rx="2" fill="#ebedf0"/>
  <rect x="710" y="60" width="11" height="11" rx="2" fill="#0d47a1"/>
  <rect x="710" y="74" width="11" height="11" rx="2" fill="#4a90d9"/>
  <rect x="710" y="88" width="11" height="11" rx="2" fill="#0d47a1"/>
  <rect x="710" y="102" width="11" height="11" rx="2" fill="#0d47a1"/>
  <rect x="710" y="116" width="11" height="11" rx="2" fill="#ebedf0"/>
  <rect x="724" y="32" width="11" height="11" rx="2" fill="#1f6feb"/>
  <rect x="724" y="46" width="11" height="11" rx="2" fill="#9fc5f8"/>
  <rect x="724" y="60" width="11" height="11" rx="2" fill="#9fc5f8"/>
  <rect x="724" y="74" width="11" height="11" rx="2" fill="#0d47a1"/>
  <rect x="724" y="88" width="11" height="11" rx="2" fill="#ebedf0"/>
  <rect x="724" y="102" width="11" height="11" rx="2" fill="#4a90d9"/>
  <rect x="724" y="116" width="11" height="11" rx="2" fill="#4a90d9"/>
  <rect x="738" y="32" width="11" height="11" rx="2" fill="#ebedf0"/>
  <rect x="738" y="46" width="11" height="11" rx="2" fill="#ebedf0"/>
  <rect x="738" y="60" width="11" height="11" rx="2" fill="#ebedf0"/>
  <rect x="738" y="74" width="11" height="11" rx="2" fill="#4a90d9"/>
  <rect x="738" y="88" width="11" height="11" rx="2" fill="#0d47a1"/>
  <rect x="738" y="102" width="11" height="11" rx="2" fill="#ebedf0"/>
  <rect x="738" y="116" width="11" height="11" rx="2" fill="#ebedf0"/>
  <rect x="752" y="32" width="11" height="11" rx="2" fill="#ebedf0"/>
  <rect x="752" y="46" width="11" height="11" rx="2" fill="#1f6feb"/>
  <rect x="752" y="60" width="11" height="11" rx="2" fill="#ebedf0"/>
  <rect x="752" y="74" width="11" height="11" rx="2" fill="#ebedf0"/>
  <rect x="752" y="88" width="11" height="11" rx="2" fill="#4a90d9"/>
  <rect x="752" y="102" width="11" height="11" rx="2" fill="#ebedf0"/>
  <rect x="752" y="116" width="11" height="11" rx="2" fill="#0d47a1"/>
  <rect x="766" y="32" width="11" height="11" rx="2" fill="#ebedf0"/>
  <rect x="766" y="46" width="11" height="11" rx="2" fill="#ebedf0"/>
  <rect x="766" y="60" width="11" height="11" rx="2" fill="#1f6feb"/>
  <rect x="766" y="74" width="11" height="11" rx="2" fill="#0d47a1"/>
  <rect x="766" y="88" width="11" height="11" rx="2" fill="#ebedf0"/>
  <rect x="766" y="102" width="11" height="11" rx="2" fill="#ebedf0"/>
  <!-- SOC Scan sweep -->
  <rect x="38" y="28" width="3" height="106" rx="1" fill="#f85149" opacity="0.18">
    <animate attributeName="x" from="36" to="784" dur="3.5s" repeatCount="indefinite"/>
    <animate attributeName="opacity" values="0;0.18;0.18;0" keyTimes="0;0.02;0.98;1" dur="3.5s" repeatCount="indefinite"/>
  </rect>
  <rect x="38" y="28" width="1" height="106" fill="#f85149" opacity="0.9">
    <animate attributeName="x" from="36" to="784" dur="3.5s" repeatCount="indefinite"/>
    <animate attributeName="opacity" values="0;0.9;0.9;0" keyTimes="0;0.02;0.98;1" dur="3.5s" repeatCount="indefinite"/>
  </rect>
  <text x="38" y="164" font-family="ui-monospace,monospace" font-size="8" fill="#57606a">SIEM LOG EVENTS · CONTRIBUTION ACTIVITY</text>
</svg>